<?xml version="1.0" standalone="no"?>
<!DOCTYPE svg PUBLIC "-//W3C//DTD SVG 20010904//EN"
 "http://www.w3.org/TR/2001/REC-SVG-20010904/DTD/svg10.dtd">
<svg version="1.0" xmlns="http://www.w3.org/2000/svg"
 width="940.000000pt" height="720.000000pt" viewBox="0 0 940.000000 720.000000"
 preserveAspectRatio="xMidYMid meet">

<g transform="translate(0.000000,720.000000) scale(0.100000,-0.100000)"
fill="#000000" stroke="none">
<path d="M3000 5396 c-116 -32 -211 -109 -262 -214 -32 -63 -33 -72 -33 -182
0 -103 3 -121 26 -171 50 -106 143 -185 254 -214 44 -11 110 -15 255 -15 l196
0 16 103 c39 239 147 464 308 640 l62 67 -389 -1 c-276 0 -401 -4 -433 -13z"/>
<path d="M2700 3513 c0 -1335 0 -1352 21 -1418 11 -36 29 -75 40 -86 10 -10
19 -23 19 -27 0 -21 115 -113 167 -134 57 -22 67 -23 448 -26 l391 -3 224 478
c123 263 263 561 310 663 48 102 96 204 107 227 l20 41 -39 39 c-21 21 -53 67
-71 103 -30 60 -32 72 -32 165 0 93 3 104 32 161 50 97 117 157 216 195 l57
22 0 119 c0 119 0 120 29 149 33 32 74 38 108 14 18 -13 22 -13 33 0 27 32 93
9 119 -42 6 -12 11 -73 11 -141 l0 -120 26 -6 c71 -18 170 -113 212 -204 19
-43 26 -75 28 -137 l3 -80 -8 81 c-10 103 -44 178 -111 244 -27 28 -75 63
-105 76 l-55 25 0 126 c0 124 0 125 -29 154 -33 33 -56 36 -89 13 -20 -14 -24
-14 -44 0 -31 22 -52 20 -85 -8 -27 -24 -28 -27 -33 -151 l-5 -126 -52 -18
c-144 -49 -241 -175 -251 -327 -7 -111 23 -188 106 -275 l43 -46 -330 -706
c-182 -388 -331 -709 -331 -714 0 -5 -41 -97 -92 -204 -80 -169 -92 -201 -92
-249 -1 -65 21 -108 77 -153 70 -57 199 -47 260 21 10 11 78 147 151 303 l133
284 67 5 67 5 116 248 c64 136 117 246 119 244 2 -2 -47 -113 -110 -248 l-113
-244 365 -3 c201 -1 367 0 370 2 2 3 -14 42 -36 88 -22 46 -92 193 -156 328
-109 228 -147 290 -180 290 -22 0 -53 -43 -91 -123 -20 -43 -39 -77 -41 -74
-10 10 81 179 106 197 26 18 27 18 57 1 17 -11 40 -41 55 -72 198 -413 302
-626 309 -635 5 -7 70 -137 144 -290 75 -153 143 -286 153 -297 60 -67 189
-77 259 -20 56 44 76 85 76 152 1 51 -8 74 -91 245 -51 104 -92 193 -92 197 0
4 27 9 60 11 l59 3 -285 595 c-157 327 -310 646 -340 709 l-54 114 26 26 c47
47 74 87 93 142 11 30 20 45 20 34 1 -32 -43 -116 -86 -164 l-39 -45 158 -330
c88 -182 241 -501 340 -708 l181 -378 203 0 203 0 3 998 c2 799 6 1002 16
1015 10 12 41 16 150 19 167 4 214 21 292 104 58 62 73 93 95 196 43 210 -58
353 -300 425 -56 17 -151 18 -1499 21 -792 1 -1443 -1 -1447 -5 -4 -5 -108 -6
-231 -3 l-223 5 -68 32 c-80 38 -153 109 -191 184 l-26 53 0 -1351z m2096 202
c147 -86 126 -318 -34 -384 -28 -12 -35 -11 -74 16 -136 91 -139 287 -5 367
52 32 60 32 113 1z"/>
<path d="M4704 3716 c-72 -32 -121 -135 -105 -222 17 -91 103 -173 161 -153
36 13 90 66 106 106 28 66 11 176 -34 226 -14 16 -84 58 -94 57 -2 -1 -17 -7
-34 -14z"/>
<path d="M6690 4124 c0 -48 -56 -149 -108 -195 -80 -71 -117 -83 -274 -87 -94
-3 -140 -8 -148 -16 -11 -14 -15 -2629 -4 -2647 9 -16 225 -11 285 7 111 33
192 107 238 218 l25 61 4 1333 c3 968 1 1337 -7 1345 -8 8 -11 3 -11 -19z"/>
</g>
</svg>
